<?xml version="1.0" encoding="utf-8"?>
<!-- Generator: Adobe Illustrator 27.5.0, SVG Export Plug-In . SVG Version: 6.00 Build 0)  -->
<svg version="1.1" id="Layer_1" xmlns="http://www.w3.org/2000/svg" xmlns:xlink="http://www.w3.org/1999/xlink" x="0px" y="0px"
	 viewBox="0 0 1024 1024" style="enable-background:new 0 0 1024 1024;" xml:space="preserve">
<g>
	<path style="fill:#0A0E13;" d="M404.558,0c2.458,0.075,4.932,0.168,7.408,0.301c1.987,37.469-0.113,75.108,1.013,112.635
		c0.713,5.814-2.795,9.584-8.515,9.978c-0.525-3.489-0.994-6.995-1.145-10.521C404.858,74.959,402.307,37.376,404.558,0z"/>
	<path style="fill:#0A0E13;" d="M454.782,4.258c-0.225-5.215,8.514-5.647,8.364-0.245c0.394,35.765,0.43,71.547,0.036,107.31
		c-0.111,3.713-0.28,7.408-0.448,11.121c-2.59-0.038-5.178-0.057-7.766-0.095c-0.187-3.581-0.355-7.163-0.337-10.764
		C454.987,75.821,454.688,40.021,454.782,4.258z"/>
	<path style="fill:#0A0E13;" d="M568.486,4.351c0.506-5.495,9.678-4.069,8.383,1.426c0.525,35.257-0.318,70.515,0.525,105.753
		c0.9,6.189-1.689,11.384-8.553,10.184c-0.262-3.451-0.488-6.902-0.523-10.353C568.898,75.69,568.055,39.982,568.486,4.351z"/>
	<path style="fill:#0A0E13;" d="M508.792,17.422c-0.788-6.094,8.983-6.751,8.497-0.375c0.861,30.944,0.168,61.945,0.318,92.926
		c-0.019,4.219-0.133,8.439-0.244,12.658c-7.276,1.406-10.54-3.6-9.077-10.332C509.28,80.68,508.399,49.041,508.792,17.422z"/>
	<path style="fill:#0A0E13;" d="M479.574,33.889c2.438,0.149,4.896,0.318,7.352,0.506c2.476,25.749,0.113,51.705,1.764,77.51
		c-0.638,1.369-1.257,2.756-1.876,4.163c-2.325,0.095-4.633,0.207-6.94,0.319c-0.093-1.238-0.281-3.676-0.375-4.896
		C479.123,85.631,478.729,59.73,479.574,33.889z"/>
	<path style="fill:#0A0E13;" d="M356.38,39.739c-0.601-5.757,9.113-5.796,8.626-0.056c0.394,24.23-0.057,48.46,0.132,72.689
		c-0.113,2.795-0.245,5.57-0.394,8.364c-6.059,1.575-9.584-2.476-8.553-8.458C356.885,88.105,356.173,63.914,356.38,39.739z"/>
	<path style="fill:#0A0E13;" d="M613.496,43.49c0.563-4.633,5.607-3.676,8.607-2.045c0.301,23.293,0.188,46.603,0.281,69.915
		c-0.037,3.188-0.074,6.376-0.074,9.583c-6.695,3.039-10.805-1.912-9.227-8.664C613.908,89.362,612.934,66.389,613.496,43.49z"/>
	<path style="fill:#FFD746;" d="M517.607,109.973c16.709,3,33.813,0.676,50.711,1.388c0.035,3.45,0.262,6.901,0.523,10.353
		c6.863,1.2,9.453-3.994,8.553-10.184c11.889,0.338,23.854-1.05,35.69,0.75c-1.578,6.752,2.531,11.703,9.227,8.664
		c0-3.207,0.037-6.395,0.074-9.583c37.49,0.15,74.998-0.112,112.486-0.075c3.543-0.486,6.377,1.575,8.514,4.164
		c28.674,30.287,59.619,58.512,87.656,89.362c-18.528-1.988-26.987,18.173-39.496,28.169c4.594,7.52,11.647,13.859,13.597,22.767
		c-20.198-25.618-45.011-47.278-67.233-71.134c-9.451-9.977-19.896-21.98-34.994-21.417c-143.787-0.188-287.573,0.094-431.34,0.038
		c-10.165-0.77-20.179,3.131-27.268,10.39c-23.142,23.105-46.059,46.452-68.976,69.764c-7.615,7.502-11.685,18.042-11.685,28.675
		c0,142.586,0.112,285.19-0.15,427.777c-0.43,9.864,2.738,19.878,9.921,26.874c21.324,22.055,43.903,42.909,64.945,65.245
		c-5.551-3.02-10.896-6.377-15.884-10.239c-10.183,11.946-26.668,20.479-31.263,35.987c-26.706-26.892-54.555-53.241-80.173-80.847
		c-0.432-58.513-1.5-117.176-0.751-175.706c9.097,1.145,9.359-9.977,0.414-9.452c-1.108-12.209-0.751-24.492,0.055-36.7l1.52-0.339
		c1.443-0.356,4.35-1.05,5.813-1.389c-0.694-4.069-3.264-6.938-7.595-6.938c-1.256-8.045-1.819-16.259-0.601-24.325
		c2.663-0.318,5.326-0.712,7.989-1.124c-0.055-1.594-0.187-4.764-0.244-6.339c-2.588-0.432-5.157-0.844-7.727-1.163
		c-0.168-4.481-0.28-8.946-0.355-13.428c-0.694-0.393-2.064-1.163-2.756-1.557c9.395,3.563,15.565-9.059,3.337-8.44
		c-0.731-11.139-0.619-22.298-0.094-33.438c2.57-0.226,5.158-0.487,7.745-0.769c-0.093-4.295-2.362-7.613-6.882-7.82
		c-0.451-12.209-0.637-24.436-0.15-36.646c8.553,1.427,8.571-10.09,0.132-9.264c-0.508-35.596,0.187-71.228-0.412-106.822
		c0.674-2.082-0.883-7.239,2.699-6.732c2.533-0.225,5.082-0.432,7.634-0.601c-0.15-6.339-5.251-10.465-9.302-14.646
		c7.015-7.971,14.197-17.122,24.342-21.023c2.963-0.976,5.908-2.007,8.833-3.095c-1.482-1.969-2.925-3.938-4.463-5.832
		c29.351-29.574,59.132-58.775,88.594-88.256c3.958-5.176,10.896-3.226,16.504-3.545c36.946,0.694,74.002-1.219,110.874,0.807
		c-1.031,5.982,2.494,10.033,8.553,8.458c0.148-2.794,0.28-5.569,0.394-8.364c12.677-1.031,25.522-1.463,38.182,0.019
		c0.15,3.526,0.619,7.032,1.145,10.521c5.72-0.394,9.228-4.163,8.515-9.978l0.243-1.049c13.766-0.883,27.605-0.114,41.409-0.301
		c-0.018,3.601,0.15,7.183,0.337,10.764c2.588,0.038,5.176,0.057,7.766,0.095c0.168-3.713,0.337-7.408,0.448-11.121
		c5.44,0.131,10.879,0.188,16.316,0.168c0.094,1.22,0.282,3.657,0.375,4.896c2.307-0.112,4.614-0.225,6.94-0.319
		c0.619-1.407,1.238-2.794,1.876-4.163c6.525-0.338,13.089-0.318,19.598,0.395c-1.463,6.732,1.801,11.738,9.077,10.332
		C517.475,118.412,517.588,114.191,517.607,109.973z"/>
	<path style="fill:#0A0E13;" d="M80.566,155.282c-3.751-3.207,2.701-9.678,5.701-5.476c18.511,17.254,36.102,35.539,53.954,53.467
		c1.539,1.895,2.981,3.863,4.463,5.832c-2.925,1.088-5.87,2.119-8.833,3.095C117.885,192.809,98.139,175.03,80.566,155.282z"/>
	<path style="fill:#0A0E13;" d="M244.306,173.624c7.089-7.259,17.104-11.159,27.268-10.39c143.768,0.056,287.553-0.226,431.34-0.038
		c15.098-0.564,25.543,11.44,34.994,21.417c22.223,23.855,47.035,45.516,67.233,71.134c1.557,5.345,2.795,10.82,3.038,16.41
		c-0.019,64.719-0.299,129.457,0.264,194.178c-0.808,78.428,0.018,156.875-0.301,235.305c0.319,10.071-3.825,19.767-10.916,26.818
		c-21.041,22.074-42.815,43.452-64.381,65.001c-7.764,8.009-18.266,13.128-29.445,13.708c-143.936,0.226-287.873,0.15-431.789-0.13
		c-13.072,1.05-24.493-6.113-33.251-15.078c-21.042-22.336-43.621-43.19-64.945-65.245c-7.183-6.996-10.351-17.01-9.921-26.874
		c0.262-142.587,0.15-285.191,0.15-427.777c0-10.633,4.069-21.173,11.685-28.675C198.247,220.076,221.164,196.729,244.306,173.624z"
		/>
	<path style="fill:#0A0E13;" d="M51.891,185.869c-3.525-3.262,0.976-6.432,3.469-8.326c19.523,17.703,37.452,37.095,56.15,55.681
		c4.051,4.182,9.152,8.308,9.302,14.646c-2.551,0.169-5.101,0.376-7.634,0.601C93.45,226.922,71.995,207.006,51.891,185.869z"/>
	<path style="fill:#FFD746;" d="M350.64,184.22c7.764-3.395,15.923,7.501,9.714,13.56
		c-53.298,52.941-104.983,107.591-158.432,160.363c-7.465,7.766-20.593-6.639-11.366-13.053
		C244.569,292.167,295.617,235.961,350.64,184.22z"/>
	<path style="fill:#FFD746;" d="M613.402,184.407c4.463-2.025,9.582-0.393,12.734,3.169
		c50.316,52.867,101.551,104.892,152.301,157.346c8.736,7.126-4.746,20.235-11.93,11.778
		c-52.174-52.232-103.127-105.716-154.719-158.509C607.418,194.385,608.17,187.051,613.402,184.407z"/>
	<path style="fill:#FFD746;" d="M437.302,192.246c15.265-1.932,27.644,15.416,22.074,29.443
		c-4.858,15.997-28.939,19.748-38.071,5.514C410.897,214.189,420.95,193.203,437.302,192.246z"/>
	<path style="fill:#FFD746;" d="M525.635,192.509c27.193-3.771,31.58,40.94,4.518,43.435
		C501.928,240.95,497.503,194.009,525.635,192.509z"/>
	<path style="fill:#FFD746;" d="M292.897,195.959c8.009-4.838,17.029,7.202,9.828,13.504c-26.03,26.48-52.418,52.717-78.412,79.254
		c-6.937,8.515-20.91-3.057-12.882-11.084C238.454,250.327,264.841,222.196,292.897,195.959z"/>
	<path style="fill:#FFD746;" d="M677.166,199.504c4.631-0.731,8.1,3.713,11.213,6.564c22.619,24.229,46.379,47.446,69.147,71.508
		c6.713,7.708-5.926,18.528-12.527,10.766c-24.1-24.719-48.367-49.324-72.371-74.115C667.17,209.5,670.582,200.836,677.166,199.504z
		"/>
	<path style="fill:#FEC229;" d="M791.545,232.98c12.509-9.996,20.968-30.157,39.496-28.169
		c10.747,10.576,24.117,20.441,31.281,33.607c0.601,39.252,0.357,78.541,0.357,117.793c-8.797-1.257-9.358,9.565-0.657,8.946
		c1.256,12.19,1.013,24.474,0.676,36.702c-2.852,0.299-5.665,0.73-8.458,1.181c0.075,1.612,0.243,4.839,0.318,6.451
		c2.569,0.357,5.157,0.712,7.764,0.976c0.751,11.308,0.433,22.674,1.163,34.001c-2.213,0.094-4.389,0.243-6.564,0.431
		c0.825-1.407,1.668-2.775,2.569-4.125c3.75-16.166-2.308-28.694-11.139-41.429c-9.079-0.824-18.85-4.069-27.569,0.038
		c-12.21,20.442-8.159,44.652-12.34,66.952c-0.563-64.721-0.282-129.459-0.264-194.178c-0.243-5.59-1.482-11.065-3.038-16.41
		C803.192,246.84,796.139,240.5,791.545,232.98z"/>
	<path style="fill:#FEC229;" d="M611.678,227.766c6.113-0.75,9.975,5.439,13.99,9.096c36.137,36.401,71.601,73.459,107.57,110.029
		c4.803,5.515,12.135,10.783,11.066,19.036c-0.283,20.028,0.432,40.096-0.17,60.105c-0.018,9.283-15.115,10.053-17.197,1.65
		c-1.67-21.174,2.045-43.096-1.256-63.896c-38.746-41.745-79.518-81.841-119.219-122.687
		C602.037,236.299,605.357,228.516,611.678,227.766z"/>
	<path style="fill:#FFD746;" d="M352.928,229.773c7.314-3.095,15.472,9.039,8.589,14.328
		c-35.482,36.345-71.151,72.539-106.69,108.866c-21.661,16.259-8.346,46.302-11.965,69.332c3.432,12.228-16.86,16.109-17.516,3.489
		c1.518-22.655-2.57-46.305,2.119-68.341C268.63,314.354,309.889,270.899,352.928,229.773z"/>
	<path style="fill:#E9E9E8;" d="M862.322,238.418c26.2,30.082,47.353,64.494,61.569,101.704
		c0.769,13.371,15.622,12.771,25.093,16.277c-28.769,0.469-57.536-0.433-86.305-0.188
		C862.68,316.959,862.923,277.67,862.322,238.418z"/>
	<path style="fill:#FFD746;" d="M368.643,258.504c3.508-3.658,9.004-2.514,13.56-2.832c70.045,0.412,140.111,0,210.158,0.375
		c8.943-0.75,14.346,7.427,19.99,12.959c27.512,29.743,57.236,57.556,83.998,87.919c-9.17-4.201-16.166-11.572-24.137-17.497
		c-1.949,18.228,23.631,25.616,26.275,41.914c-31.076-33.775-64.326-65.488-95.795-98.889c-4.971-5.009-9.941-11.909-17.967-10.804
		c-65.619,0.113-131.24,0.282-196.878,0.113c-4.688,0.244-10.37-0.543-13.597,3.694c-33.775,35.576-69.258,69.727-102.396,105.773
		c-1.37,62.318,0.094,124.883-0.733,187.314c-0.692,4.781,2.101,8.72,5.478,11.776c38.275,37.864,74.716,77.698,113.461,115.038
		c-0.751,0.093-2.251,0.279-3.001,0.354c-13.071-9.677-22.373-23.424-34.882-33.775c-2.14,1.857-4.276,3.733-6.414,5.608
		c0.956,2.831,1.876,5.662,2.925,8.494c-29.817-28.6-57.893-59-87.149-88.18c-3.844-3.525-6.846-8.196-6.263-13.636
		c0.262-64.455-0.15-128.933,0.111-193.408c-0.881-8.552,7.108-13.408,12.115-18.959
		C301.093,327.292,334.907,292.916,368.643,258.504z"/>
	<path style="fill:#0A0E13;" d="M374.251,275.457c3.227-4.237,8.908-3.45,13.597-3.694c65.639,0.169,131.259,0,196.878-0.113
		c8.025-1.105,12.996,5.795,17.967,10.804c31.469,33.4,64.719,65.113,95.795,98.889c-2.74,62.808,0.15,125.913-1.406,188.702
		c-35.857,39.552-74.566,76.853-111.66,115.393c-3.94,3.694-7.635,9.077-13.672,8.834c-60.539,0.917-121.226-1.163-181.688,1.088
		c-38.745-37.34-75.186-77.174-113.461-115.038c-3.377-3.057-6.17-6.995-5.478-11.776c0.826-62.432-0.638-124.996,0.733-187.314
		C304.994,345.184,340.476,311.033,374.251,275.457z"/>
	<path style="fill:#FFD746;" d="M391.018,305.389c5.795-6.714,15.266-4.538,23.067-4.914c52.848,0.806,105.827-0.845,158.584,0.845
		c17.365,13.614,31.635,31.075,47.522,46.452c-4.746,1.577-9.695,2.251-14.648,2.626c7.484,8.758,16.355,16.842,20.668,27.794
		c-18.998-18.305-37.17-37.433-56.074-55.813c-2.945-3.376-7.428-4.031-11.646-3.92c-50.016,0.169-100.051,0.021-150.068,0.039
		c-5.253-0.451-8.983,3.487-12.379,6.864c-23.836,24.305-48.029,48.27-71.564,72.876c-2.7,3.038-6.15,6.264-5.777,10.747
		c-0.036,45.027,0.207,90.075-0.469,135.104c0,5.681-0.469,12.302,4.408,16.352c19.842,19.936,39.42,40.134,58.906,60.425
		c-4.164-1.632-8.346-3.132-12.508-4.726c-1.764,1.969-3.508,3.956-5.253,5.945c2.776,4.013,5.326,8.177,7.745,12.434
		c-21.173-19.729-40.602-41.315-61.099-61.776c-4.444-4.987-11.122-9.789-10.278-17.291c-0.036-50.71-0.337-101.4-0.093-152.111
		c-0.226-3.939,0.937-7.877,4.03-10.503C333.35,363.994,361.781,334.271,391.018,305.389z"/>
	<path style="fill:#0A0E13;" d="M396.043,325.362c3.396-3.377,7.126-7.315,12.379-6.864c50.017-0.018,100.052,0.13,150.068-0.039
		c4.219-0.111,8.701,0.544,11.646,3.92c18.904,18.38,37.076,37.508,56.074,55.813c8.4,13.034,28.676,20.536,26.143,38.389
		c-0.111,43.79-0.226,87.581,0.037,131.371c0.92,8.722-7.482,13.672-12.508,19.43c-26.557,25.823-50.918,54.498-78.973,78.43
		c-46.924,2.023-94.182,0.019-141.236,0.881c-18.022,2.888-25.675-16.842-38.127-25.825c-19.486-20.291-39.065-40.489-58.906-60.425
		c-4.877-4.051-4.408-10.672-4.408-16.352c0.676-45.028,0.433-90.076,0.469-135.104c-0.373-4.483,3.077-7.709,5.777-10.747
		C348.014,373.633,372.207,349.667,396.043,325.362z"/>
	<path style="fill:#FFD746;" d="M333.93,405.761c24.906-25.113,49.587-50.449,74.417-75.655
		c51.123,0.095,102.264-0.226,153.389,0.264c21.098,22.484,43.977,43.303,64.662,66.162c-8.607-3.337-14.346-10.745-21.06-16.633
		c-13.146,16.089-36.607,19.446-45.029,40.396c-7.162,2.831-12.357,8.607-17.084,14.459c9.34,0.337,18.68,0.394,28.037,0.412
		c-0.863-1.52-1.705-3.002-2.531-4.502c3.9,2.025,7.613,4.782,8.252,9.49c-3.471-1.444-7.107-2.794-10.934-2.626
		c-55.568,0.301-111.192-0.207-166.76,0.394c-8.928-0.28-6.921,12.772,1.594,10.726c58.419-0.823,117.323,2.627,175.461-1.668
		c-14.234,12.641-41.445-1.274-56.523,10.783c17.402,1.575,35.424-0.394,52.285,5.157c-57.65-0.262-115.355-0.769-173.005,0.301
		c-5.569-0.806-5.476,5.813-6.206,9.564c18.435,1.538,36.964,0.45,55.436,1.257c0.883,20.311-0.845,40.678,0.919,60.932
		c-2.681-1.274-5.289-2.682-7.877-4.069c-13.934,12.677-26.667,26.574-40.207,39.665c-8.328,6.958-9.509,19.896-21.248,23.01
		c8.775,14.255,22.748,24.681,30.529,39.29c-25.654-25.843-50.728-52.268-76.57-77.942c-3.377-2.606-2.833-7.051-2.927-10.802
		c-0.057-43.771,0.132-87.524-0.111-131.296C330.423,409.98,331.869,407.579,333.93,405.761z"/>
	<path style="fill:#F8AB0C;" d="M672.213,339.428c7.971,5.925,14.967,13.296,24.137,17.497c7.953,6.582,19.279,14.027,17.666,25.917
		c-0.279,63.145-0.15,126.309-0.15,189.453c0.865,8.569-7.631,13.353-12.639,18.922c-35.578,35.689-70.516,71.996-105.68,108.079
		c-4.82,4.369-8.852,11.832-16.315,11.102c-65.227-0.187-130.528,0.676-195.715-0.563c-13.316-8.514-23.875-22.186-34.827-33.795
		c-1.049-2.832-1.969-5.663-2.925-8.494c2.138-1.875,4.275-3.751,6.414-5.608c12.509,10.352,21.811,24.099,34.882,33.775
		c0.75-0.075,2.25-0.262,3.001-0.354c60.462-2.251,121.149-0.171,181.688-1.088c6.037,0.243,9.732-5.14,13.672-8.834
		c37.094-38.54,75.803-75.841,111.66-115.393c1.557-62.789-1.334-125.895,1.406-188.702
		C695.844,365.044,670.264,357.655,672.213,339.428z"/>
	<path style="fill:#F8AB0C;" d="M605.543,350.398c4.953-0.375,9.902-1.049,14.648-2.626c16.521,17.049,34.449,33.064,49.602,51.274
		c1.99,51.291,0.115,103.033,0.752,154.513c1.219,9.659-8.289,14.985-13.84,21.249c-23.313,24.211-47.225,47.841-70.217,72.353
		c-8.289,9.939-20.271,17.083-33.531,16.747c-45.664,0.225-91.35,0.149-137.015,0.225c-19.523,0.469-32.969-16.109-44.41-29.612
		c-2.419-4.257-4.969-8.421-7.745-12.434c1.745-1.989,3.489-3.977,5.253-5.945c4.162,1.594,8.344,3.094,12.508,4.726
		c12.452,8.983,20.104,28.713,38.127,25.825c47.054-0.862,94.312,1.143,141.236-0.881c28.055-23.932,52.416-52.606,78.973-78.43
		c5.025-5.758,13.428-10.708,12.508-19.43c-0.264-43.79-0.148-87.581-0.037-131.371c2.533-17.853-17.742-25.354-26.143-38.389
		C621.898,367.239,613.027,359.155,605.543,350.398z"/>
	<path style="fill:#0A0E13;" d="M862.023,365.157c-8.701,0.619-8.14-10.203,0.657-8.946c28.768-0.244,57.536,0.657,86.305,0.188
		c5.327-2.139,14.179,3.657,7.39,8.007c-18.417,1.427-37.152-0.018-55.682,0.694C887.809,364.463,874.906,364.95,862.023,365.157z"
		/>
	<path style="fill:#0A0E13;" d="M31.562,371.046c-5.214,0.938-7.445-7.502-1.914-8.515c27.044-0.918,54.162,0.075,81.243-0.506
		c8.439-0.826,8.421,10.69-0.132,9.264C84.373,370.858,57.949,371.177,31.562,371.046z"/>
	<path style="fill:#CECDCC;" d="M862.023,365.157c12.884-0.207,25.786-0.694,38.67-0.057c16.055,5.945,33.796,1.238,50.393,4.163
		c7.333,4.708,10.089,13.896,14.647,20.986c-4.015,3.413-7.371,7.483-10.54,11.685c-30.832,0.017-61.683-0.394-92.494-0.075
		C863.035,389.631,863.278,377.348,862.023,365.157z"/>
	<path style="fill:#FEC229;" d="M560.309,420.295c8.422-20.95,31.883-24.308,45.029-40.396c6.715,5.888,12.453,13.296,21.06,16.633
		c6.32,4.914,15.322,10.822,14.158,19.992c-0.225,40.02-0.205,80.043-0.15,120.063c-0.301,5.533,1.539,12.471-3.637,16.371
		c-27.457,26.275-52.961,54.837-80.248,81.056c-48.442,0.581-96.976,0.506-145.457,0.28l-0.619-1.425
		c-7.781-14.609-21.754-25.035-30.529-39.29c11.739-3.113,12.92-16.052,21.248-23.01c13.54-13.091,26.273-26.988,40.207-39.665
		c2.588,1.388,5.196,2.795,7.877,4.069c3.075,0.057,9.434,2.906,9.828-2.155c1.162-19.749,0.036-39.572,0.337-59.339
		c6.582,0.038,13.166,0.132,19.748,0.226c0.824,27.849-0.038,55.756,0.563,83.605c-1.013,7.67,12.247,7.82,11.102,0
		c0.337-27.962-0.375-55.961-0.036-83.941c6.414,0.036,12.846,0.055,19.259,0.036c1.257,20.572-1.145,41.277,1.146,61.795
		c3.167-0.169,6.337-0.319,9.527-0.487c1.424-20.442,0.262-40.94,0.748-61.401c18.117-0.036,36.252,0.357,54.369-0.093
		c0.281-2.964,0.543-5.908,0.805-8.833c-1.143-0.376-3.412-1.107-4.537-1.464c-16.861-5.551-34.883-3.582-52.285-5.157
		c15.078-12.058,42.289,1.857,56.523-10.783c0.244-2.288,0.469-4.557,0.639-6.826c-0.639-4.708-4.352-7.465-8.252-9.49
		c0.826,1.5,1.668,2.981,2.531,4.502c-9.357-0.018-18.697-0.075-28.037-0.412C547.951,428.902,553.146,423.126,560.309,420.295z"/>
	<path style="fill:#E9E9E8;" d="M965.732,390.25c1.612-1.389,3.337-2.626,5.082-3.901c11.722,13.71,23.704,27.269,34.095,42.047
		c-0.995,0.149-2.964,0.432-3.958,0.582c4.145,7.145,8.31,14.384,10.578,22.391c-10.483,10.877,1.78,27.869-7.727,40.171
		c-4.82-2.456-9.602-4.969-14.459-7.333c6.32,12.285,17.815,21.212,23.085,34.133c-19.353,3.9-9.488,28.6-17.928,41.896
		c-11.009,17.235,19.204,28.976,8.701,45.573c2.925,9.002,9.247,16.597,11.195,25.992c-3.412-0.186-6.787-0.355-10.164-0.544
		c0.486,6.789,4.971,12.04,8.233,17.687c-4.82-4.052-9.658-8.103-15.003-11.423c-11.777,14.816-6.02,33.927-9.602,50.992
		c-0.451,17.029,1.088,33.757,9.283,48.985c-3.32,2.102-6.49,4.407-9.527,6.883c3.881,6.113,7.688,12.283,11.214,18.643
		c-7.877,13.39-11.12,30.568-9.996,46.209c-1.649,0.994-3.282,1.986-4.913,3c0.396,1.595,0.808,3.189,1.237,4.82
		c-3.976,0.787-7.913,1.707-11.815,2.774c-0.412,2.833-0.806,5.683-1.199,8.553c-2.101,0.356-4.201,0.731-6.264,1.124
		c0.73,0.751,1.462,1.521,2.23,2.308c-9.32,5.945-14.44,18.304-26.255,20.122c0.938,1.613,1.875,3.246,2.831,4.896
		c-33.064,32.462-62.282,69.296-98.645,98.646c-0.075,1.369-0.114,2.737-0.132,4.145c-9.864,8.685-22.974,16.129-36.457,14.386
		c-42.798,7.482-87.808-1.688-130.866,5.212c2.457,4.971,5.025,9.902,7.445,14.91c-6.826-3.845-12.658-9.134-19.016-13.672
		c-0.601,13.54-15.396,14.534-20.049,24.813c-12.039-1.352-18.809-13.241-28.711-19.055c-12.828,0.355-8.873,11.553-3.994,18.959
		c-2.945-0.448-5.852-0.881-8.777-1.293c-1.201,4.276-2.326,8.571-3.414,12.902c-4.068,2.251-8.064,4.632-11.945,7.22
		c-6.414-3.111-12.434-6.938-18.342-10.896c-8.103,2.645-15.924,6.808-24.549,7.24c-14.029,0.13-23.875-12.529-37.77-12.848
		c-15.116-8.683-26.087-28.486-46.398-22.691c-0.337,4.163-0.638,8.325-0.938,12.509c-13.954,8.794-30.944,7.35-43.621-2.907
		c-15.228,10.071-30.346-6.17-45.723-7.802c-15.135-0.676-24.943-13.334-35.07-22.937c-34.694-34.037-68.171-69.221-101.833-104.253
		c42.309,0.881,84.654-0.111,126.982,0.92c0.224,24.079-0.32,48.159,0.412,72.221c2.213,0.3,4.425,0.582,6.676,0.862
		c12.247-1.707,23.781,2.119,35.521,4.82c-0.862-4.183-1.613-8.402-2.139-12.641c2.645,1.951,5.308,3.958,7.915,6.002
		c0.244-4.803,0.845-9.621,3.244-13.858c0.862,6.618-3.169,21.903,8.309,18.827c0.299-5.381,0.581-10.745,0.638-16.109
		c5.888,4.144,11.383,8.814,16.615,13.765c1.706-2.268,3.432-4.538,5.177-6.787c5.083,0.638,10.145,1.443,15.172,2.494
		c2.381,3.806,4.969,7.521,7.932,10.914c0.075,2.72,0.244,5.421,0.433,8.177c2.4-0.057,4.82-0.074,7.237-0.113
		c1.857-32.18,1.295-64.569,0.619-96.787c0.544,2.455,0.77,4.932,1.127,7.501c1.932,26.124-0.658,52.436,1.781,78.503
		c-0.132,7.39,6.938,10.147,12.846,11.91c1.013-1.819,2.044-3.64,3.075-5.439c0.977,0.862,1.971,1.745,2.964,2.645
		c1.427,1.274,2.927,2.513,4.408,3.769c1.163-1.8,2.323-3.601,3.486-5.383c5.083,2.627,9.866,5.872,13.879,9.977
		c0.449-4.48,1.389-8.869,2.699-13.164c2.684,8.908-6,30.794,9.133,27.999c0.133-36.982,0.414-73.984,0.395-110.967
		c5.064,0.319,10.146,0.6,15.229,0.6c0.75,29.818-0.918,59.713,1.088,89.493c2.533-0.225,5.063-0.412,7.633-0.618
		c0.769-12.509,0.318-25.057,0.318-37.583c12.002-10.333,34.414-1.22,40.998-18.078c-0.734,11.982-0.902,24.098,1.685,35.894
		c0.113,3.244,0.207,6.471,0.318,9.753c2.721,0.018,5.459,0,8.215-0.169c3.264-14.984,1.238-30.475,1.596-45.666
		c1.031,2.1,2.06,4.201,3.131,6.338c29.481-0.599,59.018,0.958,88.387-2.137c23.293,1.969,47.467-2.795,67.065-15.904
		c39.121-27.886,70.084-65.132,103.128-99.564c16.278-24.699,31.62-50.617,37.621-79.909c-7.053-0.357-14.047-1.238-20.949-2.59
		c10.26-0.186,20.574,0.113,30.796-1.067c0.073-1.671,0.241-4.989,0.318-6.639c-12.679-2.438-25.618-0.977-38.427-1.407
		c5.981-0.507,11.946-1.256,17.947-1.764c1.855-12.602,7.65-30.268-6.059-38.163c15.247-0.226,30.569,0.77,45.761-1.013
		c-1.183-13.804-19.318-5.608-28.431-7.652c4.95-9.921,5.701-21.191,3.844-31.975c11.009-11.835,28.9-3.002,42.815-7.222
		c3.976-0.299,4.013-7.688-0.057-7.988c-18.679-2.213-37.62-1.05-56.394-1.987c15.771-2.513,22.336-22.036,12.697-34.265
		c12.658-0.168,25.43,0.77,38.013-1.163c-1.313-2.287-0.561-6.957-3.637-7.501c-11.703-2.324-23.725-1.462-35.576-1.78
		c14.121-6.19,15.641-23.199,18.229-36.477c1.163-0.808,2.345-1.614,3.563-2.401c-9.546,0.057-19.055-0.655-28.432-2.306
		c12.247-0.469,24.607,0.768,36.777-1.183c-0.094-1.669-0.301-5.008-0.393-6.658c-10.859-1.706-21.85-1.013-32.763-1.331
		c8.195-1.857,16.54-2.87,24.96-3.038c3.114-11.701-4.725-20.892-16.765-19.13c10.802-0.073,21.699,0.225,32.332-2.023l2.119-0.282
		c0.506-6.527-3.939-8.589-9.791-7.764c-4.35-6.957-11.477-10.578-19.671-10.484c12.771-1.725,25.748-0.037,38.5-2.138l2.345-0.243
		c-1.425-2.494-1.443-6.357-4.201-7.764c-7.894-1.914-16.071-1.857-24.135-1.538c12.641-6.939,8.082-21.23,9.582-32.595
		c5.944,0.15,11.928,0,17.854-0.808c0.057-1.63,0.168-4.894,0.226-6.525c-2.215-0.432-4.427-0.806-6.64-1.124
		C958.361,397.733,961.718,393.663,965.732,390.25z"/>
	<path style="fill:#F8AB0C;" d="M820.783,399.383c8.72-4.107,18.49-0.862,27.569-0.038c8.831,12.734,14.889,25.263,11.139,41.429
		c-0.901,1.35-1.744,2.718-2.569,4.125c-1.013,2.193-1.857,4.483-2.702,6.771c3.02,0.45,6.059,0.844,9.115,1.22
		c-0.448,4.199-1.124,8.458-3.207,12.208c-1.199,2.288-2.419,4.557-3.618,6.864c1.557,0.337,4.67,1.031,6.206,1.368
		c0.357,8.102,0.301,16.223-0.13,24.344c-2.532,0.393-5.027,0.919-7.501,1.461c-0.075,1.445-0.207,4.334-0.264,5.776
		c2.344,0.414,4.727,0.845,7.127,1.163c1.726,14.459-0.396,28.919-0.095,43.416c-2.081,0.337-4.145,0.731-6.17,1.163
		c-0.112,2.025-0.226,4.052-0.319,6.095c2.401,0.451,4.803,0.92,7.24,1.275c0.375,11.928-0.186,23.854-1.069,35.746
		c-4.482,1.725-3.845,5.494-1.557,8.888c4.97,12.229,2.157,25.807,1.706,38.596c-4.424,0.339-5.232,4.463-6.095,8.063
		c2.083,0.282,4.183,0.544,6.302,0.788c0.355,13.466,0.112,26.949-0.769,40.416c-1.257,0.373-3.732,1.106-4.971,1.481
		c0.057,1.575,0.15,4.707,0.207,6.281c2.119,0.226,4.237,0.451,6.377,0.638c-0.489,13.241,0.563,27.157-2.569,39.966
		c-38.445,39.064-77.585,77.528-115.976,116.668c-5.381,5.344-13.803,3.637-20.685,4.22c-38.502-0.357-77.041,0.563-115.525-0.188
		c-0.168-3.226-0.412-6.414-0.654-9.603c-2.57,0.394-5.102,0.845-7.635,1.295c-0.057,2.831-0.094,5.663-0.111,8.496
		c-14.291,0.28-28.582,0.412-42.852-0.057c-0.17-3.207-0.357-6.377-0.564-9.546c-2.531-0.264-5.063-0.487-7.576-0.712
		c-0.412,3.525-0.787,7.032-0.938,10.614c-5.082,0-10.164-0.281-15.229-0.6c-3.168-0.168-6.318-0.15-9.451,0
		c-5.439,0.28-10.896,0.526-16.316,0.337c-2.908-0.111-5.815-0.149-8.703-0.093c-6.733,0.168-13.483,0.168-20.196-0.094
		c-0.357-2.569-0.583-5.046-1.127-7.501c-1.181-2.42-5.438-1.633-7.745-2.702c-0.262,3.396-0.505,6.808-0.619,10.258
		c-14.907,0.526-29.855,0.619-44.766-0.093c-0.148-3.207-0.337-6.357-0.523-9.527c-2.494-0.15-4.971-0.244-7.427-0.299h-1.352
		c-1.462,2.568-2.793,5.213-4.124,7.875c-9.621,0.357-19.373,0.319-28.656-2.549c6.245-7.916,19.184-5.722,24.83-13.034
		c-2.232-8.776-12.379-13.017-18.603-19.055c5.101-13.109,21.378-8.382,32.351-11.534c94.407-2.962,189.018-1.387,283.407-4.295
		c11.18-0.58,21.682-5.699,29.445-13.708c21.566-21.549,43.34-42.927,64.381-65.001c7.091-7.052,11.235-16.747,10.916-26.818
		c0.319-78.43-0.507-156.877,0.301-235.305C812.624,444.035,808.573,419.825,820.783,399.383z"/>
	<path style="fill:#0A0E13;" d="M854.24,403.04c2.793-0.45,5.607-0.882,8.458-1.181c30.812-0.318,61.662,0.093,92.494,0.075
		c2.213,0.318,4.425,0.692,6.64,1.124c-0.058,1.632-0.169,4.896-0.226,6.525c-5.927,0.808-11.91,0.958-17.854,0.808
		c-27.137-0.243-54.291,0.169-81.43,0.075c-2.607-0.264-5.194-0.619-7.764-0.976C854.483,407.879,854.315,404.652,854.24,403.04z"/>
	<path style="fill:#0A0E13;" d="M22.841,408.291c29.332-0.694,58.719,0.132,88.068-0.356c4.52,0.207,6.789,3.525,6.882,7.82
		c-2.587,0.281-5.175,0.543-7.745,0.769c-30.081,0.339-60.181,0.244-90.262,0.15C18.209,413.41,17.984,408.291,22.841,408.291z"/>
	<path style="fill:#CECDCC;" d="M862.322,410.467c27.139,0.094,54.293-0.318,81.43-0.075c-1.5,11.364,3.058,25.655-9.582,32.595
		c8.063-0.319,16.241-0.376,24.135,1.538c-31.6,0.412-63.218-0.657-94.819-0.057C862.755,433.141,863.073,421.774,862.322,410.467z"
		/>
	<path style="fill:#0A0E13;" d="M400.882,448.648c-8.515,2.046-10.522-11.007-1.594-10.726c55.568-0.601,111.192-0.093,166.76-0.394
		c3.826-0.168,7.463,1.182,10.934,2.626c-0.17,2.27-0.394,4.538-0.639,6.826C518.205,451.275,459.301,447.825,400.882,448.648z"/>
	<path style="fill:#0A0E13;" d="M856.922,444.898c2.175-0.188,4.351-0.337,6.564-0.431c31.602-0.601,63.22,0.469,94.819,0.057
		c2.758,1.406,2.776,5.27,4.201,7.764l-2.345,0.243c-32.255,0.77-64.568,0.508-96.826,0.358c-3.057-0.376-6.095-0.77-9.115-1.22
		C855.065,449.382,855.909,447.092,856.922,444.898z"/>
	<path style="fill:#0A0E13;" d="M34.524,450.019c25.187-0.826,50.412,0.057,75.616-0.057c12.229-0.619,6.058,12.003-3.337,8.44
		c-24.118-0.057-48.235-0.15-72.372-0.487C34.3,455.288,34.318,452.646,34.524,450.019z"/>
	<path style="fill:#CECDCC;" d="M863.335,452.889c32.258,0.15,64.571,0.412,96.826-0.358c-12.752,2.101-25.729,0.412-38.5,2.138
		c8.193-0.094,15.321,3.527,19.671,10.484c-27.061,0.299-54.122-0.356-81.204-0.057
		C862.211,461.347,862.887,457.088,863.335,452.889z"/>
	<path style="fill:#0A0E13;" d="M392.894,472.785c0.73-3.751,0.637-10.369,6.206-9.564c57.65-1.069,115.355-0.563,173.005-0.301
		c1.125,0.357,3.395,1.088,4.537,1.464c-0.262,2.925-0.523,5.869-0.805,8.833c-18.117,0.45-36.252,0.057-54.369,0.093
		c-0.486,20.461,0.676,40.959-0.748,61.401c-3.189,0.168-6.359,0.318-9.527,0.487c-2.29-20.518,0.111-41.223-1.146-61.795
		c-6.413,0.019-12.845,0-19.259-0.036c-0.339,27.98,0.373,55.979,0.036,83.941c1.146,7.82-12.114,7.67-11.102,0
		c-0.601-27.849,0.262-55.756-0.563-83.605c-6.582-0.094-13.166-0.188-19.748-0.226c-0.301,19.767,0.825,39.59-0.337,59.339
		c-0.395,5.062-6.753,2.212-9.828,2.155c-1.764-20.254-0.036-40.621-0.919-60.932C429.858,473.235,411.329,474.323,392.894,472.785z
		"/>
	<path style="fill:#0A0E13;" d="M856.51,471.961c1.199-2.308,2.419-4.576,3.618-6.864c27.082-0.3,54.143,0.355,81.204,0.057
		c5.852-0.825,10.297,1.236,9.791,7.764l-2.119,0.282c-28.749,0.075-57.538,0.374-86.288,0.13
		C861.18,472.992,858.066,472.298,856.51,471.961z"/>
	<path style="fill:#0A0E13;" d="M12.751,481.937c-5.382-1.199-3.264-9.413,1.838-8.851c31.769,0.15,63.576-0.469,95.325,0.3
		c2.57,0.319,5.139,0.732,7.727,1.163c0.057,1.575,0.189,4.745,0.244,6.339c-2.663,0.412-5.326,0.806-7.989,1.124
		C77.528,481.919,45.121,482.107,12.751,481.937z"/>
	<path style="fill:#CECDCC;" d="M862.716,473.329c28.75,0.244,57.539-0.055,86.288-0.13c-10.633,2.249-21.53,1.95-32.332,2.023
		c12.04-1.762,19.879,7.429,16.765,19.13c-8.42,0.168-16.765,1.181-24.96,3.038c-15.304,0.619-30.608-0.337-45.891,0.282
		C863.017,489.552,863.073,481.432,862.716,473.329z"/>
	<path style="fill:#0A0E13;" d="M421.55,487.319c16.428-6.563,15.246,36.684,0.073,26.424
		C419.6,505.081,420.686,496.077,421.55,487.319z"/>
	<path style="fill:#0A0E13;" d="M538.348,487.733c3.133-0.226,6.264-0.414,9.416-0.582c1.611,9.097,1.912,18.492,0.018,27.55
		c-3.17-0.318-6.301-0.637-9.434-1.013C537.486,505.061,537.578,496.359,538.348,487.733z"/>
	<path style="fill:#0A0E13;" d="M855.085,499.134c2.474-0.542,4.969-1.067,7.501-1.461c15.283-0.619,30.587,0.337,45.891-0.282
		c10.913,0.318,21.903-0.375,32.763,1.331c0.093,1.65,0.3,4.989,0.393,6.658c-12.17,1.95-24.53,0.714-36.777,1.183
		c-14.307-0.601-28.618,0.243-42.907-0.489c-2.4-0.318-4.783-0.749-7.127-1.163C854.878,503.468,855.01,500.579,855.085,499.134z"/>
	<path style="fill:#0A0E13;" d="M14.364,506.749c32.013-1.295,64.083-0.375,96.133-0.412c4.331,0,6.901,2.868,7.595,6.938
		c-1.463,0.339-4.37,1.033-5.813,1.389c-32.614-0.262-65.302,0.563-97.915-0.544C14.327,511.645,14.327,509.187,14.364,506.749z"/>
	<path style="fill:#CECDCC;" d="M861.948,506.073c14.289,0.733,28.601-0.111,42.907,0.489c9.377,1.65,18.886,2.362,28.432,2.306
		c-1.218,0.787-2.399,1.594-3.563,2.401c-2.588,13.277-4.107,30.286-18.229,36.477c11.852,0.318,23.873-0.544,35.576,1.78
		c-28.413,0.207-56.824-0.506-85.219-0.037C861.553,534.992,863.674,520.532,861.948,506.073z"/>
	<path style="fill:#FFD746;" d="M230.784,542.851c10.483-4.126,13.935,8.476,12.303,16.296c1.462,12.529-5.533,28.413,5.588,37.828
		c38.033,39.495,77.022,78.109,114.362,118.243c7.126,8.121-7.258,18.661-13.278,9.489
		c-38.989-40.396-78.429-80.378-117.719-120.494c-10.764-10.276-4.95-26.424-6.489-39.477
		C226.414,557.628,222.044,546.208,230.784,542.851z"/>
	<path style="fill:#0A0E13;" d="M855.684,550.652c2.025-0.432,4.089-0.826,6.17-1.163c28.394-0.469,56.806,0.244,85.219,0.037
		c3.075,0.544,2.324,5.214,3.637,7.501c-12.583,1.933-25.354,0.995-38.013,1.163c-16.692-0.225-33.4,0.395-50.092-0.168
		c-2.438-0.356-4.839-0.824-7.24-1.275C855.458,554.704,855.571,552.678,855.684,550.652z"/>
	<path style="fill:#0A0E13;" d="M25.448,553.391c28.15-3.095,56.881-0.15,85.256-1.688c8.945-0.525,8.683,10.597-0.414,9.452
		c-26.855-0.995-53.786,0.676-80.623-0.47C26.217,560.46,26.592,555.696,25.448,553.391z"/>
	<path style="fill:#CECDCC;" d="M862.604,558.023c16.691,0.563,33.399-0.057,50.092,0.168c9.639,12.229,3.074,31.752-12.697,34.265
		c18.773,0.938,37.715-0.226,56.394,1.987c-31.618-0.188-63.238-0.205-94.857-0.674C862.418,581.877,862.979,569.95,862.604,558.023
		z"/>
	<path style="fill:#FEC229;" d="M193.558,593.748c3.751-2.044,7.52,0.582,10.033,3.282
		c53.788,57.463,109.485,113.181,163.667,170.229c7.632,9.134-7.372,19.747-14.047,10.165
		C299.629,721.05,246.012,664.657,191.307,609.37C186.412,605.058,186.919,595.999,193.558,593.748z"/>
	<path style="fill:#F8AB0C;" d="M720.58,593.786c7.934-3.9,15.397,8.569,8.664,14.234c-38.201,39.269-76.01,78.991-114.475,117.999
		c-7.144,8.533-20.797-4.95-11.926-12.003C642.152,674.053,680.334,632.683,720.58,593.786z"/>
	<path style="fill:#F8AB0C;" d="M767.297,593.468c7.934-5.326,17.272,7.688,9.602,13.483
		C721.535,663.477,666.439,720.3,611.545,777.236c-7.352,8.29-20.853-4.688-12.172-12.115
		C655.506,708.129,710.004,649.204,767.297,593.468z"/>
	<path style="fill:#0A0E13;" d="M859.979,602.656c-2.288-3.393-2.925-7.163,1.557-8.888c31.619,0.469,63.239,0.486,94.857,0.674
		c4.069,0.3,4.032,7.689,0.057,7.988C924.285,602.581,892.124,602.526,859.979,602.656z"/>
	<path style="fill:#CECDCC;" d="M859.979,602.656c32.146-0.13,64.307-0.075,96.471-0.225c-13.915,4.22-31.807-4.613-42.815,7.222
		c1.857,10.783,1.106,22.054-3.844,31.975c-16.037,0.037-32.07,0.018-48.105-0.375C862.136,628.463,864.948,614.885,859.979,602.656
		z"/>
	<path style="fill:#0A0E13;" d="M855.59,649.315c0.862-3.601,1.671-7.725,6.095-8.063c16.035,0.393,32.068,0.412,48.105,0.375
		c9.112,2.044,27.248-6.151,28.431,7.652c-15.191,1.782-30.514,0.787-45.761,1.013c-10.183-0.094-20.385,0.3-30.568-0.188
		C859.773,649.859,857.673,649.598,855.59,649.315z"/>
	<path style="fill:#FEC229;" d="M195.358,646.072c4.876-2.964,9.714,0.919,12.884,4.481c32.519,34.319,66.069,67.721,98.927,101.685
		c6.826,7.782-5.944,18.697-12.827,10.989c-33.477-34.037-66.408-68.678-100.128-102.51
		C189.432,656.874,189.282,648.717,195.358,646.072z"/>
	<path style="fill:#CECDCC;" d="M861.892,650.104c10.184,0.488,20.386,0.095,30.568,0.188c13.709,7.896,7.914,25.562,6.059,38.163
		c-6.001,0.508-11.967,1.257-17.947,1.764c-6.489,0.112-12.996-0.264-19.448,0.301C862.004,677.053,862.247,663.569,861.892,650.104
		z"/>
	<path style="fill:#F8AB0C;" d="M756.176,653.706c7.426-3.471,15.002,8.907,8.42,14.083c-31.787,31.844-62.713,64.607-94.369,96.564
		c-8.477,5.906-18.004-6.752-9.883-13.26C692.094,718.519,722.662,684.274,756.176,653.706z"/>
	<path style="fill:#0A0E13;" d="M856.152,692.001c1.238-0.375,3.714-1.108,4.971-1.481c6.452-0.564,12.959-0.188,19.448-0.301
		c12.809,0.431,25.748-1.031,38.427,1.407c-0.077,1.649-0.245,4.968-0.318,6.639c-10.222,1.181-20.536,0.881-30.796,1.067
		c-8.383-0.412-16.785-0.018-25.147-0.412c-2.14-0.187-4.258-0.412-6.377-0.638C856.303,696.708,856.209,693.576,856.152,692.001z"
		/>
	<path style="fill:#CECDCC;" d="M862.736,698.92c8.362,0.394,16.765,0,25.147,0.412c6.902,1.352,13.896,2.233,20.949,2.59
		c-6.001,29.292-21.343,55.21-37.621,79.909c-33.044,34.433-64.007,71.679-103.128,99.564
		c-19.598,13.109-43.771,17.873-67.065,15.904c-29.369,3.095-58.906,1.538-88.387,2.137c-1.07-2.137-2.1-4.238-3.131-6.338
		c-0.358,15.191,1.668,30.682-1.596,45.666c-0.244-26.387,0.338-52.793,0.074-79.18c38.484,0.751,77.023-0.169,115.525,0.188
		c6.883-0.583,15.305,1.124,20.685-4.22c38.391-39.14,77.53-77.604,115.976-116.668C863.299,726.077,862.247,712.161,862.736,698.92
		z"/>
	<path style="fill:#F8AB0C;" d="M435.465,734.402c17.777-4.126,32.068,18.567,22.26,33.382
		c-7.332,12.565-26.555,14.254-35.482,2.476C411.236,758.052,419.525,736.935,435.465,734.402z"/>
	<path style="fill:#F8AB0C;" d="M525.408,734.252c18.773-2.868,31.713,23.593,17.986,36.683
		c-9.359,11.178-28.525,8.569-34.996-4.294C500.69,753.646,510.799,735.79,525.408,734.252z"/>
	<path style="fill:#FEC229;" d="M191.214,817.707c4.595-15.509,21.08-24.041,31.263-35.987c4.989,3.862,10.333,7.219,15.884,10.239
		c8.758,8.965,20.179,16.128,33.251,15.078c143.916,0.28,287.853,0.356,431.789,0.13c-94.389,2.908-189,1.333-283.407,4.295
		c-10.973,3.152-27.25-1.575-32.351,11.534c6.225,6.038,16.371,10.278,18.603,19.055c-5.646,7.312-18.585,5.118-24.83,13.034
		c9.283,2.868,19.035,2.906,28.656,2.549c1.331-2.662,2.662-5.307,4.124-7.875h1.352c-0.264,3.244-0.469,6.508-0.544,9.789
		c-13.897,0.694-27.813,0.975-41.709,0.713c-0.58-1.725-1.106-3.451-1.613-5.157c-0.318-1.275-0.938-3.826-1.257-5.101
		c-2.362,0.018-4.725,0.055-7.087,0.13c-0.207,3.377-0.395,6.789-0.47,10.203c-42.328-1.031-84.674-0.039-126.982-0.92
		C219.081,848.501,206.667,830.873,191.214,817.707z"/>
	<path style="fill:#0A0E13;" d="M363.338,850.133c2.362-0.075,4.725-0.112,7.087-0.13c0.319,1.274,0.938,3.825,1.257,5.101
		c-0.694,26.048,2.214,52.547-1.726,78.315c-2.251-0.28-4.463-0.563-6.676-0.862c-0.733-24.061-0.189-48.142-0.412-72.221
		C362.944,856.922,363.131,853.51,363.338,850.133z"/>
	<path style="fill:#0A0E13;" d="M415.548,849.759c2.456,0.055,4.933,0.148,7.427,0.299c0.187,3.17,0.375,6.32,0.523,9.527
		c0.226,20.292-0.599,40.584-0.055,60.875c-0.057,5.364-0.339,10.729-0.638,16.109c-11.478,3.076-7.446-12.209-8.309-18.827
		c0.561-19.394,0.413-38.803,0.507-58.194C415.08,856.267,415.285,853.003,415.548,849.759z"/>
	<path style="fill:#0A0E13;" d="M468.883,849.42c2.308,1.069,6.565,0.282,7.745,2.702c0.676,32.218,1.238,64.607-0.619,96.787
		c-2.417,0.039-4.837,0.057-7.237,0.113c-0.189-2.756-0.357-5.457-0.433-8.177c0.207-27.062-0.075-54.123-0.075-81.168
		C468.378,856.228,468.622,852.815,468.883,849.42z"/>
	<path style="fill:#0A0E13;" d="M548.588,849.459c2.514,0.225,5.045,0.448,7.576,0.712c0.207,3.169,0.395,6.339,0.564,9.546
		c0.356,17.215-0.226,34.433-0.039,51.648c0,12.526,0.451,25.074-0.318,37.583c-2.57,0.206-5.1,0.394-7.633,0.618
		c-2.006-29.78-0.338-59.675-1.088-89.493C547.801,856.491,548.176,852.984,548.588,849.459z"/>
	<path style="fill:#0A0E13;" d="M599.691,851.277c2.533-0.45,5.064-0.901,7.635-1.295c0.242,3.188,0.486,6.377,0.654,9.603
		c0.264,26.387-0.318,52.793-0.074,79.18c-2.756,0.169-5.494,0.188-8.215,0.169c-0.111-3.282-0.205-6.509-0.318-9.753
		c0.375-23.123,0.19-46.266,0.207-69.407C599.598,856.94,599.635,854.108,599.691,851.277z"/>
	<path style="fill:#CECDCC;" d="M371.682,855.104c0.507,1.706,1.033,3.432,1.613,5.157c13.897,0.262,27.813-0.018,41.709-0.713
		c-0.094,19.392,0.055,38.801-0.507,58.194c-2.4,4.237-3,9.056-3.244,13.858c-2.607-2.044-5.271-4.051-7.915-6.002
		c0.525,4.238,1.276,8.458,2.139,12.641c-11.739-2.701-23.273-6.527-35.521-4.82C373.896,907.65,370.988,881.151,371.682,855.104z"
		/>
	<path style="fill:#CECDCC;" d="M423.498,859.585c14.91,0.712,29.858,0.619,44.766,0.093c0,27.045,0.282,54.106,0.075,81.168
		c-2.963-3.394-5.551-7.108-7.932-10.914c-5.027-1.051-10.089-1.856-15.172-2.494c-1.745,2.249-3.471,4.519-5.177,6.787
		c-5.232-4.95-10.728-9.62-16.615-13.765C422.9,900.169,423.724,879.877,423.498,859.585z"/>
	<path style="fill:#CECDCC;" d="M477.755,859.623c6.714,0.262,13.464,0.262,20.196,0.094c0.244,29.162-0.543,58.362,0.47,87.524
		c-0.993-0.899-1.987-1.782-2.964-2.645c-1.031,1.8-2.063,3.62-3.075,5.439c-5.908-1.764-12.978-4.521-12.846-11.91
		C477.097,912.059,479.687,885.747,477.755,859.623z"/>
	<path style="fill:#0A0E13;" d="M497.952,859.717c2.889-0.057,5.795-0.019,8.703,0.093c0.226,28.6-0.318,57.218-0.339,85.817
		c-1.163,1.782-2.323,3.583-3.486,5.383c-1.482-1.256-2.982-2.494-4.408-3.769C497.409,918.079,498.196,888.879,497.952,859.717z"/>
	<path style="fill:#CECDCC;" d="M506.655,859.81c5.42,0.189,10.876-0.057,16.316-0.337c-0.094,27.643,0.617,55.324-0.076,82.968
		c-1.31,4.295-2.25,8.684-2.699,13.164c-4.014-4.105-8.796-7.351-13.879-9.977C506.336,917.027,506.88,888.409,506.655,859.81z"/>
	<path style="fill:#0A0E13;" d="M522.971,859.473c3.133-0.15,6.283-0.168,9.451,0c0.02,36.982-0.262,73.985-0.395,110.967
		c-15.133,2.795-6.449-19.091-9.133-27.999C523.588,914.797,522.877,887.116,522.971,859.473z"/>
	<path style="fill:#CECDCC;" d="M556.728,859.717c14.27,0.469,28.561,0.337,42.852,0.057c-0.018,23.142,0.168,46.284-0.207,69.407
		c-2.588-11.796-2.42-23.911-1.685-35.894c-6.584,16.858-28.996,7.745-40.998,18.078
		C556.502,894.149,557.084,876.932,556.728,859.717z"/>
</g>
</svg>
